<?xml version="1.0" encoding="UTF-8"?>
<!DOCTYPE svg PUBLIC "-//W3C//DTD SVG 1.1//EN" "http://www.w3.org/Graphics/SVG/1.1/DTD/svg11.dtd">
<svg xmlns="http://www.w3.org/2000/svg" version="1.1" width="23px" height="21px" style="shape-rendering:geometricPrecision; text-rendering:geometricPrecision; image-rendering:optimizeQuality; fill-rule:evenodd; clip-rule:evenodd" xmlns:xlink="http://www.w3.org/1999/xlink">
<g><path style="opacity:1" fill="#f4f5f5" d="M -0.5,-0.5 C 7.16667,-0.5 14.8333,-0.5 22.5,-0.5C 22.5,6.5 22.5,13.5 22.5,20.5C 14.8333,20.5 7.16667,20.5 -0.5,20.5C -0.5,13.5 -0.5,6.5 -0.5,-0.5 Z"/></g>
<g><path style="opacity:1" fill="#1b3151" d="M 8.5,9.5 C 8.23798,8.02218 8.57131,6.68884 9.5,5.5C 9.83333,5.66667 10.1667,5.83333 10.5,6C 9.9152,7.30238 9.24853,8.46905 8.5,9.5 Z"/></g>
<g><path style="opacity:1" fill="#233857" d="M 8.5,9.5 C 9.47308,11.0683 9.63974,12.735 9,14.5C 8.59826,13.1279 8.09826,11.7946 7.5,10.5C 7.62358,9.89333 7.95691,9.55999 8.5,9.5 Z"/></g>
<g><path style="opacity:1" fill="#647288" d="M 16.5,6.5 C 16.8966,5.47498 17.5632,5.30831 18.5,6C 21.1674,9.49292 20.8341,12.6596 17.5,15.5C 16.8084,13.6649 17.1417,11.8316 18.5,10C 17.9152,8.69762 17.2485,7.53095 16.5,6.5 Z"/></g>
</svg>
