<?xml version="1.0" encoding="UTF-8"?>
<!DOCTYPE svg PUBLIC "-//W3C//DTD SVG 1.1//EN" "http://www.w3.org/Graphics/SVG/1.1/DTD/svg11.dtd">
<svg xmlns="http://www.w3.org/2000/svg" version="1.1" width="24px" height="29px" style="shape-rendering:geometricPrecision; text-rendering:geometricPrecision; image-rendering:optimizeQuality; fill-rule:evenodd; clip-rule:evenodd" xmlns:xlink="http://www.w3.org/1999/xlink">
<g><path style="opacity:1" fill="#f8f8f8" d="M -0.5,-0.5 C 7.5,-0.5 15.5,-0.5 23.5,-0.5C 23.5,9.16667 23.5,18.8333 23.5,28.5C 15.5,28.5 7.5,28.5 -0.5,28.5C -0.5,18.8333 -0.5,9.16667 -0.5,-0.5 Z"/></g>
<g><path style="opacity:1" fill="#223756" d="M 6.5,8.5 C 10.1667,8.5 13.8333,8.5 17.5,8.5C 17.5,9.5 17.5,10.5 17.5,11.5C 13.8333,11.5 10.1667,11.5 6.5,11.5C 6.5,10.5 6.5,9.5 6.5,8.5 Z"/></g>
<g><path style="opacity:1" fill="#c1c6ce" d="M 6.5,8.5 C 6.5,9.5 6.5,10.5 6.5,11.5C 10.1667,11.5 13.8333,11.5 17.5,11.5C 17.5,11.8333 17.5,12.1667 17.5,12.5C 13.351,11.9197 9.68431,12.5864 6.5,14.5C 5.50838,14.3284 4.84171,14.6618 4.5,15.5C 3.53178,13.3926 3.19845,11.0593 3.5,8.5C 4.5,8.5 5.5,8.5 6.5,8.5 Z"/></g>
<g><path style="opacity:1" fill="#122b4c" d="M 17.5,12.5 C 17.5,13.1667 17.5,13.8333 17.5,14.5C 13.8333,14.5 10.1667,14.5 6.5,14.5C 9.68431,12.5864 13.351,11.9197 17.5,12.5 Z"/></g>
<g><path style="opacity:1" fill="#122b4c" d="M 17.5,16.5 C 17.5,17.1667 17.5,17.8333 17.5,18.5C 2.83333,17.8333 2.83333,17.1667 17.5,16.5 Z"/></g>
<g><path style="opacity:1" fill="#97a1ae" d="M 6.5,14.5 C 10.1667,14.5 13.8333,14.5 17.5,14.5C 17.5,15.1667 17.5,15.8333 17.5,16.5C 2.83333,17.1667 2.83333,17.8333 17.5,18.5C 13.3537,19.647 9.02036,19.8136 4.5,19C 3.3157,17.8545 3.3157,16.6879 4.5,15.5C 4.84171,14.6618 5.50838,14.3284 6.5,14.5 Z"/></g>
</svg>
