<?xml version="1.0" encoding="UTF-8"?>
<!DOCTYPE svg PUBLIC "-//W3C//DTD SVG 1.1//EN" "http://www.w3.org/Graphics/SVG/1.1/DTD/svg11.dtd">
<svg xmlns="http://www.w3.org/2000/svg" version="1.1" width="24px" height="29px" style="shape-rendering:geometricPrecision; text-rendering:geometricPrecision; image-rendering:optimizeQuality; fill-rule:evenodd; clip-rule:evenodd" xmlns:xlink="http://www.w3.org/1999/xlink">
<g><path style="opacity:1" fill="#f7f7f7" d="M -0.5,-0.5 C 7.5,-0.5 15.5,-0.5 23.5,-0.5C 23.5,9.16667 23.5,18.8333 23.5,28.5C 15.5,28.5 7.5,28.5 -0.5,28.5C -0.5,18.8333 -0.5,9.16667 -0.5,-0.5 Z"/></g>
<g><path style="opacity:1" fill="#223756" d="M 10.5,9.5 C 10.5,8.83333 10.5,8.16667 10.5,7.5C 12.2646,6.53862 14.2646,6.20528 16.5,6.5C 16.2461,9.01427 15.4127,11.3476 14,13.5C 13.5172,12.552 13.3505,11.552 13.5,10.5C 12.209,10.7373 11.209,10.404 10.5,9.5 Z"/></g>
<g><path style="opacity:1" fill="#949ead" d="M 7.5,6.5 C 8.39105,7.10978 9.39105,7.44312 10.5,7.5C 10.5,8.16667 10.5,8.83333 10.5,9.5C 9.39105,9.55688 8.39105,9.89022 7.5,10.5C 7.5,9.16667 7.5,7.83333 7.5,6.5 Z"/></g>
<g><path style="opacity:1" fill="#3d4e6a" d="M 7.5,6.5 C 7.5,7.83333 7.5,9.16667 7.5,10.5C 6.86137,11.0968 6.52804,11.9302 6.5,13C 7.61825,15.059 8.28491,17.2257 8.5,19.5C 6.83333,19.5 5.16667,19.5 3.5,19.5C 4.40582,16.5641 5.07248,13.5641 5.5,10.5C 4.5,10.5 3.5,10.5 2.5,10.5C 2.5,9.16667 2.5,7.83333 2.5,6.5C 4.16667,6.5 5.83333,6.5 7.5,6.5 Z"/></g>
<g><path style="opacity:1" fill="#2a3e5c" d="M 11.5,15.5 C 13.1667,15.5 14.8333,15.5 16.5,15.5C 16.5,16.8333 16.5,18.1667 16.5,19.5C 14.8333,19.5 13.1667,19.5 11.5,19.5C 11.5,18.1667 11.5,16.8333 11.5,15.5 Z"/></g>
</svg>
