<?xml version="1.0" standalone="no"?>
<!DOCTYPE svg PUBLIC "-//W3C//DTD SVG 20010904//EN"
 "http://www.w3.org/TR/2001/REC-SVG-20010904/DTD/svg10.dtd">
<svg version="1.0" xmlns="http://www.w3.org/2000/svg"
 width="50.000000pt" height="60.000000pt" viewBox="0 0 50.000000 60.000000"
 preserveAspectRatio="xMidYMid meet">
<metadata>
Created by potrace 1.10, written by Peter Selinger 2001-2011
</metadata>
<g transform="translate(0.000000,60.000000) scale(0.100000,-0.100000)"
fill="#000000" stroke="none">
<path d="M179 427 c-95 -64 -114 -182 -43 -267 37 -43 75 -60 135 -60 71 0
130 35 158 93 61 125 -22 257 -161 257 -41 0 -64 -6 -89 -23z m168 -37 c86
-52 82 -189 -6 -235 -40 -20 -106 -19 -143 3 -35 20 -68 79 -68 119 1 39 31
90 66 113 38 26 109 26 151 0z"/>
<path d="M243 376 c-15 -18 -20 -43 -21 -103 -3 -73 -1 -80 23 -103 29 -27 50
-21 73 21 20 37 6 158 -21 187 -26 28 -31 28 -54 -2z m45 -29 c2 -10 -3 -17
-12 -17 -18 0 -29 16 -21 31 9 14 29 6 33 -14z m0 -99 c-2 -48 -7 -63 -18 -63
-11 0 -16 13 -18 49 -4 58 2 76 23 76 13 0 15 -11 13 -62z"/>
</g>
</svg>
