<?xml version="1.0" encoding="UTF-8"?>
<!DOCTYPE svg PUBLIC "-//W3C//DTD SVG 1.1//EN" "http://www.w3.org/Graphics/SVG/1.1/DTD/svg11.dtd">
<svg xmlns="http://www.w3.org/2000/svg" version="1.1" width="24px" height="29px" style="shape-rendering:geometricPrecision; text-rendering:geometricPrecision; image-rendering:optimizeQuality; fill-rule:evenodd; clip-rule:evenodd" xmlns:xlink="http://www.w3.org/1999/xlink">
<g><path style="opacity:1" fill="#f4f5f5" d="M -0.5,-0.5 C 7.5,-0.5 15.5,-0.5 23.5,-0.5C 23.5,9.16667 23.5,18.8333 23.5,28.5C 15.5,28.5 7.5,28.5 -0.5,28.5C -0.5,18.8333 -0.5,9.16667 -0.5,-0.5 Z"/></g>
<g><path style="opacity:1" fill="#152d4e" d="M 9.5,12.5 C 8.16667,12.5 6.83333,12.5 5.5,12.5C 5.5,11.5 5.5,10.5 5.5,9.5C 8.16667,9.5 10.8333,9.5 13.5,9.5C 13.5,10.5 13.5,11.5 13.5,12.5C 12.1667,12.5 10.8333,12.5 9.5,12.5 Z"/></g>
<g><path style="opacity:1" fill="#7c899a" d="M 5.5,12.5 C 6.83333,12.5 8.16667,12.5 9.5,12.5C 8.0857,14.5983 8.75236,15.5983 11.5,15.5C 11.5,15.8333 11.5,16.1667 11.5,16.5C 7.99516,16.6941 7.66183,17.6941 10.5,19.5C 9.16667,19.5 7.83333,19.5 6.5,19.5C 8.03422,16.8561 7.70089,14.5228 5.5,12.5 Z"/></g>
<g><path style="opacity:1" fill="#122b4c" d="M 11.5,16.5 C 11.5,16.1667 11.5,15.8333 11.5,15.5C 12.5676,14.5655 13.901,14.2322 15.5,14.5C 15.5,15.5 15.5,16.5 15.5,17.5C 13.901,17.7678 12.5676,17.4345 11.5,16.5 Z"/></g>
<g><path style="opacity:1" fill="#122b4c" d="M 6.5,19.5 C 7.83333,19.5 9.16667,19.5 10.5,19.5C 10.5,20.5 10.5,21.5 10.5,22.5C 9.16667,22.5 7.83333,22.5 6.5,22.5C 6.5,21.5 6.5,20.5 6.5,19.5 Z"/></g>
</svg>
