<?xml version="1.0" encoding="UTF-8"?>
<!DOCTYPE svg PUBLIC "-//W3C//DTD SVG 1.1//EN" "http://www.w3.org/Graphics/SVG/1.1/DTD/svg11.dtd">
<svg xmlns="http://www.w3.org/2000/svg" version="1.1" width="26px" height="23px" style="shape-rendering:geometricPrecision; text-rendering:geometricPrecision; image-rendering:optimizeQuality; fill-rule:evenodd; clip-rule:evenodd" xmlns:xlink="http://www.w3.org/1999/xlink">
<g><path style="opacity:1" fill="#f7f7f7" d="M -0.5,-0.5 C 8.16667,-0.5 16.8333,-0.5 25.5,-0.5C 25.5,7.16667 25.5,14.8333 25.5,22.5C 16.8333,22.5 8.16667,22.5 -0.5,22.5C -0.5,14.8333 -0.5,7.16667 -0.5,-0.5 Z"/></g>
<g><path style="opacity:1" fill="#5e6d83" d="M 4.5,4.5 C 8.83333,4.5 13.1667,4.5 17.5,4.5C 17.5,7.83333 17.5,11.1667 17.5,14.5C 12.8333,14.5 8.16667,14.5 3.5,14.5C 3.25293,11.0613 3.58627,7.72797 4.5,4.5 Z"/></g>
<g><path style="opacity:1" fill="#f5f5f6" d="M 5.5,5.5 C 8.8499,5.33499 12.1832,5.50166 15.5,6C 16.435,8.3806 16.7683,10.8806 16.5,13.5C 12.8333,13.5 9.16667,13.5 5.5,13.5C 5.5,10.8333 5.5,8.16667 5.5,5.5 Z"/></g>
<g><path style="opacity:1" fill="#5c6c82" d="M 4.5,15.5 C 8.88387,15.1744 13.2172,15.5078 17.5,16.5C 15.3333,16.8333 13.1667,17.1667 11,17.5C 8.38965,17.4668 6.22299,16.8001 4.5,15.5 Z"/></g>
</svg>
