<?xml version="1.0" encoding="UTF-8"?>
<!DOCTYPE svg PUBLIC "-//W3C//DTD SVG 1.1//EN" "http://www.w3.org/Graphics/SVG/1.1/DTD/svg11.dtd">
<svg xmlns="http://www.w3.org/2000/svg" version="1.1" width="24px" height="29px" style="shape-rendering:geometricPrecision; text-rendering:geometricPrecision; image-rendering:optimizeQuality; fill-rule:evenodd; clip-rule:evenodd" xmlns:xlink="http://www.w3.org/1999/xlink">
<g><path style="opacity:1" fill="#f7f7f7" d="M -0.5,-0.5 C 7.5,-0.5 15.5,-0.5 23.5,-0.5C 23.5,9.16667 23.5,18.8333 23.5,28.5C 15.5,28.5 7.5,28.5 -0.5,28.5C -0.5,18.8333 -0.5,9.16667 -0.5,-0.5 Z"/></g>
<g><path style="opacity:1" fill="#182f4f" d="M 16.5,8.5 C 15.8333,9.5 15.1667,10.5 14.5,11.5C 12.9064,11.9195 11.4064,12.5862 10,13.5C 8.27245,13.101 6.77245,12.4343 5.5,11.5C 8.58066,8.80749 12.2473,7.80749 16.5,8.5 Z"/></g>
<g><path style="opacity:1" fill="#929cab" d="M 16.5,8.5 C 17.8333,9.83333 17.8333,11.1667 16.5,12.5C 16.1583,11.6618 15.4916,11.3284 14.5,11.5C 15.1667,10.5 15.8333,9.5 16.5,8.5 Z"/></g>
<g><path style="opacity:1" fill="#203555" d="M 14.5,11.5 C 15.4916,11.3284 16.1583,11.6618 16.5,12.5C 16.1667,14.5 15.8333,16.5 15.5,18.5C 14.8826,18.6107 14.3826,18.944 14,19.5C 11.942,16.5875 12.1086,13.9209 14.5,11.5 Z"/></g>
<g><path style="opacity:1" fill="#8994a4" d="M 5.5,11.5 C 6.77245,12.4343 8.27245,13.101 10,13.5C 11.4064,12.5862 12.9064,11.9195 14.5,11.5C 12.1086,13.9209 11.942,16.5875 14,19.5C 14.3826,18.944 14.8826,18.6107 15.5,18.5C 14.4217,21.4124 13.0883,21.7458 11.5,19.5C 12.0965,18.0646 12.0965,16.398 11.5,14.5C 9.58533,14.2155 7.91866,14.5489 6.5,15.5C 4.48052,14.4617 4.14719,13.1284 5.5,11.5 Z"/></g>
<g><path style="opacity:1" fill="#162e4f" d="M 6.5,15.5 C 7.91866,14.5489 9.58533,14.2155 11.5,14.5C 12.0965,16.398 12.0965,18.0646 11.5,19.5C 9.83333,18.1667 8.16667,16.8333 6.5,15.5 Z"/></g>
</svg>
