<?xml version="1.0" standalone="no"?>
<!DOCTYPE svg PUBLIC "-//W3C//DTD SVG 20010904//EN"
 "http://www.w3.org/TR/2001/REC-SVG-20010904/DTD/svg10.dtd">
<svg version="1.0" xmlns="http://www.w3.org/2000/svg"
 width="50.000000pt" height="60.000000pt" viewBox="0 0 50.000000 60.000000"
 preserveAspectRatio="xMidYMid meet">
<metadata>
Created by potrace 1.10, written by Peter Selinger 2001-2011
</metadata>
<g transform="translate(0.000000,60.000000) scale(0.100000,-0.100000)"
fill="#000000" stroke="none">
<path d="M179 446 c-14 -7 -23 -19 -21 -30 4 -24 -16 -46 -44 -46 -13 0 -28
-9 -35 -21 -9 -17 -7 -25 10 -43 26 -28 26 -34 0 -62 -17 -18 -19 -26 -10 -42
7 -13 18 -18 29 -15 27 7 55 -24 48 -52 -5 -19 0 -25 22 -33 24 -8 31 -7 40 9
15 23 40 24 63 3 12 -11 27 -14 45 -10 21 6 25 11 20 31 -8 31 19 58 50 51 19
-5 25 -1 30 20 5 19 2 29 -10 36 -21 12 -21 54 0 66 12 7 15 17 10 36 -5 21
-12 26 -36 26 -31 0 -54 27 -45 52 4 9 -4 19 -19 26 -20 9 -27 7 -42 -9 -22
-24 -49 -24 -66 0 -12 17 -17 18 -39 7z m127 -85 c66 -40 63 -140 -5 -175 -39
-20 -66 -20 -101 1 -66 38 -67 136 -2 176 36 22 70 21 108 -2z"/>
</g>
</svg>
