<?xml version="1.0" encoding="UTF-8"?>
<!DOCTYPE svg PUBLIC "-//W3C//DTD SVG 1.1//EN" "http://www.w3.org/Graphics/SVG/1.1/DTD/svg11.dtd">
<svg xmlns="http://www.w3.org/2000/svg" version="1.1" width="24px" height="29px" style="shape-rendering:geometricPrecision; text-rendering:geometricPrecision; image-rendering:optimizeQuality; fill-rule:evenodd; clip-rule:evenodd" xmlns:xlink="http://www.w3.org/1999/xlink">
<g><path style="opacity:1" fill="#f6f6f6" d="M -0.5,-0.5 C 7.5,-0.5 15.5,-0.5 23.5,-0.5C 23.5,9.16667 23.5,18.8333 23.5,28.5C 15.5,28.5 7.5,28.5 -0.5,28.5C -0.5,18.8333 -0.5,9.16667 -0.5,-0.5 Z"/></g>
<g><path style="opacity:1" fill="#1f3454" d="M 18.5,14.5 C 16.5,14.5 14.5,14.5 12.5,14.5C 12.5,12.8333 12.5,11.1667 12.5,9.5C 14.5,9.5 16.5,9.5 18.5,9.5C 18.5,11.1667 18.5,12.8333 18.5,14.5 Z"/></g>
<g><path style="opacity:1" fill="#98a2af" d="M 12.5,14.5 C 14.5,14.5 16.5,14.5 18.5,14.5C 18.5,15.1667 18.5,15.8333 18.5,16.5C 14.1667,16.5 9.83333,16.5 5.5,16.5C 5.5,17.8333 5.5,19.1667 5.5,20.5C 4.51836,17.0381 4.18503,13.3714 4.5,9.5C 6.83333,9.5 9.16667,9.5 11.5,9.5C 11.1486,12.0412 11.4819,13.7079 12.5,14.5 Z"/></g>
<g><path style="opacity:1" fill="#122b4c" d="M 5.5,10.5 C 7.16667,10.5 8.83333,10.5 10.5,10.5C 10.5,11.8333 10.5,13.1667 10.5,14.5C 8.83333,14.5 7.16667,14.5 5.5,14.5C 5.5,13.1667 5.5,11.8333 5.5,10.5 Z"/></g>
<g><path style="opacity:1" fill="#122b4c" d="M 18.5,16.5 C 18.5,17.8333 18.5,19.1667 18.5,20.5C 14.1667,20.5 9.83333,20.5 5.5,20.5C 5.5,19.1667 5.5,17.8333 5.5,16.5C 9.83333,16.5 14.1667,16.5 18.5,16.5 Z"/></g>
</svg>
