<?xml version="1.0" standalone="no"?>
<!DOCTYPE svg PUBLIC "-//W3C//DTD SVG 20010904//EN"
 "http://www.w3.org/TR/2001/REC-SVG-20010904/DTD/svg10.dtd">
<svg version="1.0" xmlns="http://www.w3.org/2000/svg"
 width="150.000000pt" height="44.000000pt" viewBox="0 0 150.000000 44.000000"
 preserveAspectRatio="xMidYMid meet">
<metadata>
Created by potrace 1.10, written by Peter Selinger 2001-2011
</metadata>
<g transform="translate(0.000000,44.000000) scale(0.100000,-0.100000)"
fill="#000000" stroke="none">
<path d="M654 349 c-16 -5 -41 -20 -55 -35 l-24 -26 52 -48 c29 -26 76 -62
105 -79 69 -40 53 -40 -22 0 -65 34 -170 124 -170 144 0 7 8 16 18 18 9 3 2 5
-15 6 -29 1 -33 -2 -33 -23 0 -32 90 -112 179 -161 36 -20 55 -33 41 -29 -35
9 -89 38 -129 68 -19 14 -37 24 -39 21 -10 -10 22 -67 51 -91 27 -23 37 -25
86 -20 62 6 87 7 116 3 23 -2 33 29 14 47 -9 8 -10 8 -5 -1 8 -14 -10 -27 -25
-18 -7 5 -4 14 7 26 24 27 24 105 -1 142 -30 47 -96 71 -151 56z m88 -50 c29
-16 50 -72 38 -104 -9 -23 -12 -24 -31 -14 -34 18 -109 90 -109 104 0 25 65
34 102 14z"/>
<path d="M158 334 c-56 -30 -77 -118 -44 -182 21 -40 63 -62 121 -62 62 0 113
46 117 105 l3 40 -69 0 c-65 0 -69 -1 -71 -22 -1 -21 3 -23 44 -23 l46 -1 -28
-24 c-34 -30 -56 -31 -91 -4 -44 34 -32 110 21 130 18 7 33 5 56 -6 31 -16 87
-21 87 -7 -1 13 -34 49 -57 61 -30 15 -103 13 -135 -5z"/>
<path d="M380 220 l0 -130 75 0 c73 0 75 1 75 25 0 23 -4 25 -40 25 l-40 0 0
105 0 105 -35 0 -35 0 0 -130z"/>
<path d="M858 220 l3 -130 30 0 29 0 1 78 0 77 28 -75 c25 -69 30 -75 56 -75
27 0 30 5 56 80 l29 80 0 -82 0 -83 30 0 30 0 0 130 0 130 -37 0 -38 0 -34
-92 c-27 -72 -36 -87 -43 -72 -4 10 -21 51 -36 89 -28 69 -29 70 -68 73 l-39
3 3 -131z"/>
<path d="M1180 220 l0 -130 33 0 32 0 0 130 0 130 -32 0 -33 0 0 -130z"/>
<path d="M1270 220 l0 -130 75 0 c73 0 75 1 75 25 0 23 -4 25 -40 25 l-40 0 0
105 0 105 -35 0 -35 0 0 -130z"/>
</g>
</svg>
